<svg height="512" viewBox="0 0 64 64" width="512" xmlns="http://www.w3.org/2000/svg"><g id="Flat"><path d="m53 24.267c0 18.366-21 36.733-21 36.733s-21-18.367-21-36.733a21 21 0 1 1 42 0z" fill="#fa4b4b"/><path d="m19.625 46.953a86.778 86.778 0 0 0 12.375 14.047s17.6-15.4 20.567-32.1c-8.144 9.04-20.061 15.6-32.942 18.053z" fill="#dc3c46"/><circle cx="32" cy="24" fill="#eee" r="17"/><path d="m38 33v2l-6-2-6 2v-2a2 2 0 0 1 .8-1.6l2.734-2.05a.96.96 0 0 0 .37-.925l-.904-5.425h-8v-1.759a1.591 1.591 0 0 1 1.2-1.541l6.8-1.7v-3.172a2 2 0 0 1 .586-1.414l1.707-1.707a1 1 0 0 1 1.414 0l1.707 1.707a2 2 0 0 1 .586 1.414v3.172l6.8 1.7a1.591 1.591 0 0 1 1.2 1.541v1.759h-8l-.9 5.425a.96.96 0 0 0 .37.925l2.73 2.05a2 2 0 0 1 .8 1.6z" fill="#ad2a37"/></g></svg>