<svg height="512" viewBox="0 0 64 64" width="512" xmlns="http://www.w3.org/2000/svg"><g id="Flat"><path d="m53 24.267c0 18.366-21 36.733-21 36.733s-21-18.367-21-36.733a21 21 0 1 1 42 0z" fill="#fa4b4b"/><path d="m19.625 46.953a86.778 86.778 0 0 0 12.375 14.047s17.6-15.4 20.567-32.1c-8.144 9.04-20.061 15.6-32.942 18.053z" fill="#dc3c46"/><circle cx="32" cy="24" fill="#eee" r="17"/><path d="m40 22a4.937 4.937 0 0 0 -1.74.33l-1.56-2.495 1.918-3.835h1.382a1 1 0 0 1 0 2h-2v2h2a3 3 0 0 0 0-6h-2a1 1 0 0 0 -.9.553l-1.718 3.447h-6.764l-1-2h2.382v-2h-6v2h1.382l1.5 3-1.6 3.189a4.93 4.93 0 0 0 -1.282-.189 5 5 0 1 0 4.9 6h3.1a1 1 0 0 0 .9-.553l2.758-5.516.91 1.456a4.986 4.986 0 1 0 3.432-1.387zm-12-.764 2.382 4.764h-1.482a4.988 4.988 0 0 0 -1.824-2.913zm-1.844 3.687a3.005 3.005 0 0 1 .66 1.077h-1.2zm-2.156 5.077a3 3 0 0 1 0-6 2.9 2.9 0 0 1 .363.037l-1.258 2.516a1 1 0 0 0 .895 1.447h2.816a3 3 0 0 1 -2.816 2zm8-5.236-2.382-4.764h4.764zm8 5.236a2.983 2.983 0 0 1 -2.339-4.856l1.491 2.386a1 1 0 0 0 1.7-1.06l-1.5-2.395a3 3 0 1 1 .648 5.925z" fill="#ad2a37"/></g></svg>