<svg height="512" viewBox="0 0 64 64" width="512" xmlns="http://www.w3.org/2000/svg"><g id="Flat"><path d="m53 24.267c0 18.366-21 36.733-21 36.733s-21-18.367-21-36.733a21 21 0 1 1 42 0z" fill="#fa4b4b"/><path d="m19.625 46.953a86.778 86.778 0 0 0 12.375 14.047s17.6-15.4 20.567-32.1c-8.144 9.04-20.061 15.6-32.942 18.053z" fill="#dc3c46"/><circle cx="32" cy="24" fill="#eee" r="17"/><g fill="#ad2a37"><path d="m39 30v-11a7 7 0 0 0 -14 0v11h-2v4h18v-4zm-12-11a5 5 0 0 1 10 0v11h-10z"/><path d="m33 18h-2v2h-2v2h2v5h2v-5h2v-2h-2z"/></g></g></svg>