<svg height="512" viewBox="0 0 64 64" width="512" xmlns="http://www.w3.org/2000/svg"><g id="Flat"><path d="m53 24.267c0 18.366-21 36.733-21 36.733s-21-18.367-21-36.733a21 21 0 1 1 42 0z" fill="#fa4b4b"/><path d="m19.625 46.953a86.778 86.778 0 0 0 12.375 14.047s17.6-15.4 20.567-32.1c-8.144 9.04-20.061 15.6-32.942 18.053z" fill="#dc3c46"/><circle cx="32" cy="24" fill="#eee" r="17"/><g fill="#ad2a37"><path d="m25 22.939v5.061c0 1.105 3.134 2 7 2s7-.895 7-2v-5.061l-7 2.154z"/><path d="m43 27.278v-7.663l2-.615-13-4-13 4 13 4 9-2.769v7.047a2 2 0 1 0 2 0z"/></g></g></svg>