<svg height="512" viewBox="0 0 64 64" width="512" xmlns="http://www.w3.org/2000/svg"><g id="Flat"><path d="m53 24.267c0 18.366-21 36.733-21 36.733s-21-18.367-21-36.733a21 21 0 1 1 42 0z" fill="#fa4b4b"/><path d="m19.625 46.953a86.778 86.778 0 0 0 12.375 14.047s17.6-15.4 20.567-32.1c-8.144 9.04-20.061 15.6-32.942 18.053z" fill="#dc3c46"/><circle cx="32" cy="24" fill="#eee" r="17"/><g fill="#ad2a37"><path d="m35 16h-2v-2h-2v2h-2a2 2 0 0 0 -2 2v5a2 2 0 0 0 2 2h6v5h-6v-2.5h-2v2.5a2 2 0 0 0 2 2h2v2h2v-2h2a2 2 0 0 0 2-2v-5a2 2 0 0 0 -2-2h-6v-5h6v2.5h2v-2.5a2 2 0 0 0 -2-2z"/><path d="m23.121 21.707-1.414-1.414-3.707 3.707 3.707 3.707 1.414-1.414-1.293-1.293h3.172v-2h-3.172z"/><path d="m42.293 20.293-1.414 1.414 1.293 1.293h-3.172v2h3.172l-1.293 1.293 1.414 1.414 3.707-3.707z"/></g></g></svg>