<svg height="512" viewBox="0 0 64 64" width="512" xmlns="http://www.w3.org/2000/svg"><g id="Flat"><path d="m53 24.267c0 18.366-21 36.733-21 36.733s-21-18.367-21-36.733a21 21 0 1 1 42 0z" fill="#fa4b4b"/><path d="m19.625 46.953a86.778 86.778 0 0 0 12.375 14.047s17.6-15.4 20.567-32.1c-8.144 9.04-20.061 15.6-32.942 18.053z" fill="#dc3c46"/><circle cx="32" cy="24" fill="#eee" r="17"/><g fill="#ad2a37"><path d="m28 15h8a5 5 0 0 1 5 5v1a0 0 0 0 1 0 0h-18a0 0 0 0 1 0 0v-1a5 5 0 0 1 5-5z"/><path d="m41 27a3.876 3.876 0 0 1 -2.813-1.219 2.248 2.248 0 0 0 -1.687-.781 2.22 2.22 0 0 0 -1.688.781 3.855 3.855 0 0 1 -5.626 0 2.211 2.211 0 0 0 -3.373 0 3.87 3.87 0 0 1 -2.813 1.219v-2a2.216 2.216 0 0 0 1.685-.78 3.851 3.851 0 0 1 5.623 0 2.216 2.216 0 0 0 1.692.78 2.251 2.251 0 0 0 1.69-.781 3.856 3.856 0 0 1 5.627 0 2.22 2.22 0 0 0 1.683.781z"/><path d="m23 29h18a0 0 0 0 1 0 0v1a3 3 0 0 1 -3 3h-12a3 3 0 0 1 -3-3v-1a0 0 0 0 1 0 0z"/></g></g></svg>