<svg height="512" viewBox="0 0 64 64" width="512" xmlns="http://www.w3.org/2000/svg"><g id="Flat"><path d="m53 24.267c0 18.366-21 36.733-21 36.733s-21-18.367-21-36.733a21 21 0 1 1 42 0z" fill="#fa4b4b"/><path d="m19.625 46.953a86.778 86.778 0 0 0 12.375 14.047s17.6-15.4 20.567-32.1c-8.144 9.04-20.061 15.6-32.942 18.053z" fill="#dc3c46"/><circle cx="32" cy="24" fill="#eee" r="17"/><g fill="#ad2a37"><path d="m23 21 4-4 4 4-2 2h6l-2-2 4-4 4 4-2 2h4v-6a2 2 0 0 0 -2-2h-18a2 2 0 0 0 -2 2v6h4z"/><path d="m44 26a1 1 0 0 0 -1-1h-22a1 1 0 0 0 -1 1v4h1v2h2v-2h18v2h2v-2h1z"/></g></g></svg>