<svg height="512" viewBox="0 0 64 64" width="512" xmlns="http://www.w3.org/2000/svg"><g id="Flat"><path d="m53 24.267c0 18.366-21 36.733-21 36.733s-21-18.367-21-36.733a21 21 0 1 1 42 0z" fill="#fa4b4b"/><path d="m19.625 46.953a86.778 86.778 0 0 0 12.375 14.047s17.6-15.4 20.567-32.1c-8.144 9.04-20.061 15.6-32.942 18.053z" fill="#dc3c46"/><circle cx="32" cy="24" fill="#eee" r="17"/><path d="m38 20v-2a3 3 0 0 0 -3-3h-2v-3h-2v3h-2a3 3 0 0 0 -3 3v4a3 3 0 0 0 3 3h6a1 1 0 0 1 1 1v4a1 1 0 0 1 -1 1h-6a1 1 0 0 1 -1-1v-2h-2v2a3 3 0 0 0 3 3h2v3h2v-3h2a3 3 0 0 0 3-3v-4a3 3 0 0 0 -3-3h-6a1 1 0 0 1 -1-1v-4a1 1 0 0 1 1-1h6a1 1 0 0 1 1 1v2z" fill="#ad2a37"/></g></svg>