<svg height="512" viewBox="0 0 64 64" width="512" xmlns="http://www.w3.org/2000/svg"><g id="Flat"><path d="m53 24.267c0 18.366-21 36.733-21 36.733s-21-18.367-21-36.733a21 21 0 1 1 42 0z" fill="#fa4b4b"/><path d="m19.625 46.953a86.778 86.778 0 0 0 12.375 14.047s17.6-15.4 20.567-32.1c-8.144 9.04-20.061 15.6-32.942 18.053z" fill="#dc3c46"/><circle cx="32" cy="24" fill="#eee" r="17"/><path d="m41.737 18.557-2.2-1.4-1.074 1.688 2.137 1.355a1 1 0 0 1 .4.8v6a1 1 0 0 1 -2 0v-3a3 3 0 0 0 -3-3v-8a1.03 1.03 0 0 0 -1-1h-9a1.03 1.03 0 0 0 -1 1v19h-2v2h15v-2h-2v-9a1 1 0 0 1 1 1v3a3 3 0 0 0 6 0v-6a3.04 3.04 0 0 0 -1.263-2.443zm-14.737-4.557h7v5h-7z" fill="#ad2a37"/></g></svg>