<svg height="512" viewBox="0 0 64 64" width="512" xmlns="http://www.w3.org/2000/svg"><g id="Flat"><path d="m53 24.267c0 18.366-21 36.733-21 36.733s-21-18.367-21-36.733a21 21 0 1 1 42 0z" fill="#fa4b4b"/><path d="m19.625 46.953a86.778 86.778 0 0 0 12.375 14.047s17.6-15.4 20.567-32.1c-8.144 9.04-20.061 15.6-32.942 18.053z" fill="#dc3c46"/><circle cx="32" cy="24" fill="#eee" r="17"/><path d="m29.475 18.04-1.475 1.477a2.911 2.911 0 0 0 0 4.117l4.366 4.366a2.911 2.911 0 0 0 4.117 0l1.477-1.477 4.24 4.245-1.414 1.414c-3.127 3.126-7.48 2.419-10.607-.707l-5.657-5.657c-3.126-3.127-3.833-7.48-.707-10.607l1.417-1.411z" fill="#ad2a37"/></g></svg>