<svg height="512" viewBox="0 0 64 64" width="512" xmlns="http://www.w3.org/2000/svg"><g id="Flat"><path d="m53 24.267c0 18.366-21 36.733-21 36.733s-21-18.367-21-36.733a21 21 0 1 1 42 0z" fill="#fa4b4b"/><path d="m19.625 46.953a86.778 86.778 0 0 0 12.375 14.047s17.6-15.4 20.567-32.1c-8.144 9.04-20.061 15.6-32.942 18.053z" fill="#dc3c46"/><circle cx="32" cy="24" fill="#eee" r="17"/><path d="m32 12c-3 2-9 3-9 3v10.755c0 4.845 3.71 9.069 9 10.245 5.288-1.176 9-5.4 9-10.245v-10.755s-6-1-9-3zm3.09 15.511-3.09-1.625-3.09 1.625.59-3.441-2.5-2.437 3.455-.5 1.545-3.133 1.545 3.131 3.455.5-2.5 2.439z" fill="#ad2a37"/></g></svg>