<svg height="512" viewBox="0 0 64 64" width="512" xmlns="http://www.w3.org/2000/svg"><g id="Flat"><path d="m53 24.267c0 18.366-21 36.733-21 36.733s-21-18.367-21-36.733a21 21 0 1 1 42 0z" fill="#fa4b4b"/><path d="m19.625 46.953a86.778 86.778 0 0 0 12.375 14.047s17.6-15.4 20.567-32.1c-8.144 9.04-20.061 15.6-32.942 18.053z" fill="#dc3c46"/><circle cx="32" cy="24" fill="#eee" r="17"/><g fill="#ad2a37"><circle cx="32" cy="17" r="2"/><path d="m26 16h2v2h-2z"/><path d="m36 16h2v2h-2z"/><path d="m27.464 19.535h2v2h-2z" transform="matrix(.707 -.707 .707 .707 -6.184 26.142)"/><path d="m34.536 12.465h2v2h-2z" transform="matrix(.707 -.707 .707 .707 .887 29.071)"/><path d="m31 21h2v2h-2z"/><path d="m31 11h2v2h-2z"/><path d="m34.536 19.535h2v2h-2z" transform="matrix(.707 -.707 .707 .707 -4.112 31.142)"/><path d="m27.464 12.465h2v2h-2z" transform="matrix(.707 -.707 .707 .707 -1.184 24.071)"/><path d="m36.49 34a4.626 4.626 0 0 0 -2.79.88 2.891 2.891 0 0 1 -3.42 0 4.87 4.87 0 0 0 -5.57-.01 3.2 3.2 0 0 1 -.9.46 13.1 13.1 0 0 0 1.99 1.22 2.668 2.668 0 0 1 1.69-.55 2.731 2.731 0 0 1 1.71.56 4.863 4.863 0 0 0 5.58 0 2.731 2.731 0 0 1 1.71-.56 2.7 2.7 0 0 1 1.7.56h.01a14.058 14.058 0 0 0 2-1.22 3.053 3.053 0 0 1 -.92-.46 4.626 4.626 0 0 0 -2.79-.88z"/><path d="m40.99 31.44a2.731 2.731 0 0 1 -1.71-.56 4.863 4.863 0 0 0 -5.58 0 2.891 2.891 0 0 1 -3.42 0 4.847 4.847 0 0 0 -5.57 0 2.731 2.731 0 0 1 -1.71.56 2.681 2.681 0 0 1 -1.72-.56 4.559 4.559 0 0 0 -1.9-.8 14.587 14.587 0 0 0 2.07 3.12l.01.01a4.717 4.717 0 0 0 1.54.23 4.626 4.626 0 0 0 2.79-.88 2.7 2.7 0 0 1 1.7-.56 2.731 2.731 0 0 1 1.71.56 4.863 4.863 0 0 0 5.58 0 2.891 2.891 0 0 1 3.42 0 4.626 4.626 0 0 0 2.79.88 4.758 4.758 0 0 0 1.55-.24 13.915 13.915 0 0 0 2.08-3.12 4.659 4.659 0 0 0 -1.92.8 2.672 2.672 0 0 1 -1.71.56z"/><path d="m45.5 26a4.66 4.66 0 0 0 -2.8.88 2.672 2.672 0 0 1 -1.71.56 2.731 2.731 0 0 1 -1.71-.56 4.863 4.863 0 0 0 -5.58 0 2.891 2.891 0 0 1 -3.42 0 4.847 4.847 0 0 0 -5.57 0 2.891 2.891 0 0 1 -3.42 0 4.626 4.626 0 0 0 -2.79-.88c-.12 0-.24 0-.36.01a13.065 13.065 0 0 0 .45 1.99 2.733 2.733 0 0 1 1.62.56 4.863 4.863 0 0 0 5.58 0 2.7 2.7 0 0 1 1.7-.56 2.731 2.731 0 0 1 1.71.56 4.863 4.863 0 0 0 5.58 0 2.891 2.891 0 0 1 3.42 0 4.863 4.863 0 0 0 5.58 0 2.741 2.741 0 0 1 1.63-.56 13.065 13.065 0 0 0 .45-1.99c-.12-.01-.24-.01-.36-.01z"/></g></g></svg>