<svg height="512" viewBox="0 0 64 64" width="512" xmlns="http://www.w3.org/2000/svg"><g id="Flat"><path d="m53 24.267c0 18.366-21 36.733-21 36.733s-21-18.367-21-36.733a21 21 0 1 1 42 0z" fill="#fa4b4b"/><path d="m19.625 46.953a86.778 86.778 0 0 0 12.375 14.047s17.6-15.4 20.567-32.1c-8.144 9.04-20.061 15.6-32.942 18.053z" fill="#dc3c46"/><circle cx="32" cy="24" fill="#eee" r="17"/><g fill="#ad2a37"><path d="m42.539 20.308-8.505-3.544a9.9 9.9 0 0 0 -3.821-.764h-9.213a1 1 0 0 0 -1 1v10a1 1 0 0 0 1 1h20a4 4 0 0 0 1.539-7.692zm-9.273-1.7 5.734 2.392h-10v-3h1.213a7.922 7.922 0 0 1 3.053.61z"/><path d="m20 30h24v2h-24z"/></g></g></svg>