<svg height="512" viewBox="0 0 64 64" width="512" xmlns="http://www.w3.org/2000/svg"><g id="Flat"><path d="m53 24.267c0 18.366-21 36.733-21 36.733s-21-18.367-21-36.733a21 21 0 1 1 42 0z" fill="#fa4b4b"/><path d="m19.625 46.953a86.778 86.778 0 0 0 12.375 14.047s17.6-15.4 20.567-32.1c-8.144 9.04-20.061 15.6-32.942 18.053z" fill="#dc3c46"/><circle cx="32" cy="24" fill="#eee" r="17"/><path d="m42.922 23.617v-.007l-.322-.751 2.719-.906-.632-1.9-2.877.959-1.369-3.192a3 3 0 0 0 -2.759-1.82h-.682l-1-3h-8l-1 3h-.682a3 3 0 0 0 -2.756 1.818l-1.369 3.192-2.877-.959-.632 1.9 2.719.906-.322.751v.007a.99.99 0 0 0 -.07.342c0 .014-.008.026-.008.041v5a1 1 0 0 0 1 1v2h4v-1.998h11.997v2h4v-2a1 1 0 0 0 1-1v-5c0-.015-.008-.027-.008-.041a.99.99 0 0 0 -.07-.342zm-17.522-5.011a1 1 0 0 1 .918-.606h11.364a1 1 0 0 1 .919.606l1.882 4.394h-16.966zm15.6 7.894a1.5 1.5 0 1 1 -1.5-1.5 1.5 1.5 0 0 1 1.5 1.5zm-16.5 1.5a1.5 1.5 0 1 1 1.5-1.5 1.5 1.5 0 0 1 -1.5 1.5z" fill="#ad2a37"/></g></svg>