<svg height="512" viewBox="0 0 64 64" width="512" xmlns="http://www.w3.org/2000/svg"><g id="Flat"><path d="m53 24.267c0 18.366-21 36.733-21 36.733s-21-18.367-21-36.733a21 21 0 1 1 42 0z" fill="#fa4b4b"/><path d="m19.625 46.953a86.778 86.778 0 0 0 12.375 14.047s17.6-15.4 20.567-32.1c-8.144 9.04-20.061 15.6-32.942 18.053z" fill="#dc3c46"/><circle cx="32" cy="24" fill="#eee" r="17"/><path d="m43.18 28.57-1.15 1.64-8.84-13.59 2.65-4.08-1.68-1.08-2.16 3.32-2.16-3.32-1.68 1.08 2.65 4.08-8.84 13.59-1.15-1.64-1.64 1.15 2 2.85h.01a.991.991 0 0 0 .81.43h5l5-7.692 5 7.692h5a.991.991 0 0 0 .81-.43h.01l2-2.85z" fill="#ad2a37"/></g></svg>