<svg height="512" viewBox="0 0 64 64" width="512" xmlns="http://www.w3.org/2000/svg"><g id="Flat"><path d="m53 24.267c0 18.366-21 36.733-21 36.733s-21-18.367-21-36.733a21 21 0 1 1 42 0z" fill="#fa4b4b"/><path d="m19.625 46.953a86.778 86.778 0 0 0 12.375 14.047s17.6-15.4 20.567-32.1c-8.144 9.04-20.061 15.6-32.942 18.053z" fill="#dc3c46"/><circle cx="32" cy="24" fill="#eee" r="17"/><g fill="#ad2a37"><circle cx="32" cy="32" r="2"/><path d="m35.53 28.464a4.988 4.988 0 0 0 -7.06 0l-1.42-1.408a6.987 6.987 0 0 1 9.9 0z"/><path d="m39.075 24.929a10.009 10.009 0 0 0 -14.15 0l-1.41-1.418a12.008 12.008 0 0 1 16.97 0z"/><path d="m42.6 21.4a14.983 14.983 0 0 0 -21.208 0l-1.412-1.416a16.982 16.982 0 0 1 24.032 0z"/></g></g></svg>