<svg width="336" height="447" viewBox="0 0 336 447" fill="none" xmlns="http://www.w3.org/2000/svg">
<path d="M336 162.969C336 304.731 168 446.502 168 446.502C168 446.502 0 304.731 0 162.969C0 119.979 17.6999 78.7496 49.2061 48.3512C80.7122 17.9527 123.444 0.875 168 0.875C212.556 0.875 255.288 17.9527 286.794 48.3512C318.3 78.7496 336 119.979 336 162.969V162.969Z" fill="#FA4B4B"/>
<path d="M69 338.076C97.8512 377.557 131.044 413.91 168 446.502C168 446.502 308.8 327.633 332.536 198.73C267.384 268.507 172.048 319.142 69 338.076Z" fill="#DC3C46"/>
<path d="M168 292.127C243.111 292.127 304 233.378 304 160.908C304 88.4377 243.111 29.6891 168 29.6891C92.8893 29.6891 32 88.4377 32 160.908C32 233.378 92.8893 292.127 168 292.127Z" fill="#EEEEEE"/>
<path d="M266.972 153.255L157.928 89.2348C149.517 84.2889 138.004 86.9554 132.46 95.1005L111.335 126.1C109.262 129.146 108.167 132.716 108.167 136.432C108.167 142.85 111.528 148.829 116.934 152.032L139.932 165.665L135.778 171.356C133.528 174.434 132.291 178.251 132.291 182.1C132.291 186.058 133.703 189.781 135.978 192.858L129.857 202.313H100.125V189.89C100.125 187.607 98.3264 185.803 96.1039 185.803H80.0209C77.7984 185.803 76 187.607 76 189.89V231.201C76 233.484 77.7984 235.332 80.0209 235.332H96.1042C98.3267 235.332 100.125 233.484 100.125 231.201V227.077H129.857C137.942 227.077 145.445 222.955 149.93 216.044L156.52 205.887C157.789 206.17 159.07 206.427 160.378 206.427C166.778 206.427 172.801 202.925 176.092 197.285L180.51 189.72L214.73 210.005C215.346 210.373 216.041 210.558 216.74 210.558C217.128 210.558 217.517 210.502 217.898 210.385C218.959 210.054 219.842 209.291 220.337 208.275L223.313 202.15C223.802 202.188 224.272 202.296 224.77 202.296C240.287 202.296 252.915 189.322 252.915 173.378C252.915 171.627 252.664 169.823 252.289 167.978L266.776 160.537C268.103 159.855 268.955 158.48 268.999 156.955C269.037 155.433 268.26 154.009 266.972 153.255ZM92.0833 227.077H84.0415V194.058H92.0829V227.077H92.0833ZM143.238 211.483C140.25 216.086 135.248 218.835 129.857 218.835H100.125V210.58H129.857C132.558 210.58 135.059 209.206 136.548 206.904L142.115 198.328L149.02 202.58L143.238 211.483ZM169.197 193.071C166.386 197.871 159.77 199.58 155.089 196.69L144.892 190.41C142.08 188.681 140.333 185.513 140.333 182.148C140.333 180.076 141 178.024 142.21 176.363L146.946 169.882L173.543 185.635L169.197 193.071ZM215.051 200.689L120.951 144.957C118.026 143.223 116.208 139.991 116.208 136.52C116.208 134.509 116.801 132.578 117.924 130.93L128.019 116.129L227.521 175.054L215.051 200.689ZM227.391 193.798L235.807 176.496L244.739 171.912C244.784 172.419 244.873 172.943 244.873 173.433C244.873 183.89 237.228 192.463 227.391 193.798ZM232.948 168.736L132.65 109.34L139.049 99.9586C141.166 96.8549 144.629 95.0007 148.32 95.0007C150.287 95.0007 152.231 95.5289 153.938 96.5322L256.461 156.67L232.948 168.736Z" fill="#AD2A37"/>
<path d="M208.687 185.803C210.908 185.803 212.708 183.955 212.708 181.676C212.708 179.396 210.908 177.548 208.687 177.548C206.466 177.548 204.666 179.396 204.666 181.676C204.666 183.955 206.466 185.803 208.687 185.803Z" fill="#AD2A37"/>
</svg>
